PathFileType	4	(X/Y/Z)	 s01c0302.trc
DataRate	CameraRate	NumFrames	NumMarkers	Units	OrigDataRate	OrigDataStartFrame	OrigNumFrames
200	200	6	48	mm	200	251	2000
Frame#	Time	racr			lacr			c7			jug			rlel			rdr			llel			ldr			s2			lic			ric			lasi			rasi			rpsi			lpsi			rgt			lgt			rth1			rth2			rth3			rth4			rlfc			rsh1			rsh2			rsh3			rsh4			rlmal			rmmal			rcal			rtoe			rmt5			lth1			lth2			lth4			lth3			llfc			lsh1			lsh2			lsh3			lsh4			llmal			lmmal			lcal			ltoe			lmt5			SBIKE			LBIKE			RBIKE			
		X1	Y1	Z1	X2	Y2	Z2	X3	Y3	Z3	X4	Y4	Z4	X5	Y5	Z5	X6	Y6	Z6	X7	Y7	Z7	X8	Y8	Z8	X9	Y9	Z9	X10	Y10	Z10	X11	Y11	Z11	X12	Y12	Z12	X13	Y13	Z13	X14	Y14	Z14	X15	Y15	Z15	X16	Y16	Z16	X17	Y17	Z17	X18	Y18	Z18	X19	Y19	Z19	X20	Y20	Z20	X21	Y21	Z21	X22	Y22	Z22	X23	Y23	Z23	X24	Y24	Z24	X25	Y25	Z25	X26	Y26	Z26	X27	Y27	Z27	X28	Y28	Z28	X29	Y29	Z29	X30	Y30	Z30	X31	Y31	Z31	X32	Y32	Z32	X33	Y33	Z33	X34	Y34	Z34	X35	Y35	Z35	X36	Y36	Z36	X37	Y37	Z37	X38	Y38	Z38	X39	Y39	Z39	X40	Y40	Z40	X41	Y41	Z41	X42	Y42	Z42	X43	Y43	Z43	X44	Y44	Z44	X45	Y45	Z45	X46	Y46	Z46	X47	Y47	Z47	X48	Y48	Z48	
251	1.2550	619.805357	1351.721879	-147.665434	597.839302	1342.539051	-465.033761	557.965724	1431.467020	-306.899809	567.205842	1265.736025	-295.761824	621.624134	1087.065504	-16.844103	734.718923	854.241408	-55.461901	550.932313	1057.633814	-561.878403	722.537083	894.292578	-452.774114	28.546118	1238.852822	-260.711704	199.533787	1224.612699	-435.175776	185.449289	1235.550605	-107.319694	226.793836	1178.711492	-438.199570	203.347898	1183.728177	-130.167392	56.187838	1276.558889	-210.518771	59.135421	1272.552532	-317.363063	126.593702	1126.580947	-68.425623	134.311164	1097.542627	-446.353420	226.907658	1034.379071	-59.840823	288.628724	980.319505	-69.675591	351.738138	916.805497	-80.406467	322.928518	1018.611539	-89.509455	388.208929	810.135837	-100.565001	297.479321	735.278483	-64.203252	235.358853	677.447621	-67.288847	163.932195	624.617915	-77.292949	265.026155	644.990999	-108.608580	57.978659	551.091621	-94.793100	101.928597	537.416595	-172.341050	7.072989	553.061600	-150.594722	193.598394	352.316542	-137.450676	97.113355	402.223146	-71.692201	197.302537	962.025551	-401.850582	283.655244	925.035594	-449.255203	290.327958	955.788701	-428.346082	307.464722	854.181633	-410.950394	371.827662	747.271260	-388.021368	326.743104	646.955997	-430.836476	314.882061	561.213843	-427.912213	299.829884	477.108764	-420.157144	366.100883	556.057613	-394.779838	274.936186	349.004415	-410.074934	291.000146	309.344516	-308.329945	235.680718	307.202002	-366.676821	500.012048	272.041164	-370.039415	396.410380	259.470997	-440.544712	-223.789551	892.931416	-253.192575	-12.689654	84.560449	-456.077329	-21.531203	80.779867	-55.966723	
252	1.2600	621.116336	1351.956744	-148.030839	599.578595	1342.516505	-465.404358	559.497938	1431.751288	-307.691250	568.649392	1266.104578	-296.169631	622.215830	1087.281079	-16.703119	734.916527	854.222293	-55.525942	552.552860	1057.414891	-562.087325	722.984838	893.827612	-452.150170	30.448468	1238.405398	-262.188307	201.648686	1223.837735	-436.579422	186.759807	1236.654733	-108.307930	229.261282	1178.195457	-439.062829	204.849036	1184.515107	-130.932693	57.711674	1276.417569	-212.099599	61.089650	1271.824775	-318.858674	128.381612	1127.613866	-68.965725	136.663671	1096.569102	-446.615206	229.165035	1035.787441	-60.263535	291.318316	982.166851	-69.804875	354.950456	919.127853	-80.221016	325.384746	1020.725304	-89.604604	392.109088	812.653786	-100.190285	301.083421	738.174682	-63.931002	238.626219	680.683433	-67.082838	166.888566	628.211415	-77.143268	268.191710	647.991068	-108.311766	60.715332	555.527614	-94.928042	105.859098	541.632290	-172.022262	9.793052	557.352887	-150.895684	195.512472	356.022173	-137.368921	99.191004	406.296149	-71.583610	199.863092	963.284477	-401.315622	280.655022	927.439255	-454.953227	292.132158	954.399863	-428.419793	308.681692	852.661337	-411.286230	372.669625	745.202428	-388.065903	327.473181	644.882545	-431.085478	315.527741	559.102295	-428.126384	300.485692	475.057352	-420.451053	366.694655	553.946052	-394.872477	275.010086	347.208180	-410.437755	289.249901	303.796294	-307.518948	231.952075	309.374171	-369.553484	499.203680	266.198963	-369.807837	395.417621	255.623561	-440.596072	-223.773737	892.935957	-253.171198	-12.658145	84.507032	-456.071752	-21.520819	80.786363	-55.955452	
253	1.2650	622.293702	1352.264841	-148.390419	601.395194	1342.569005	-465.873315	560.949376	1432.070998	-308.399670	569.991756	1266.354273	-296.755267	622.859793	1087.410735	-16.701961	735.179127	854.207035	-55.575690	554.153183	1057.118404	-562.130698	723.407418	893.232441	-451.454783	32.332944	1237.739447	-263.606607	203.792250	1222.759030	-437.960863	188.062798	1237.579080	-109.316317	231.623612	1177.234823	-439.754669	206.416624	1185.223748	-131.737393	59.177301	1276.060043	-213.716990	62.993274	1270.942828	-320.440332	130.201599	1128.519307	-69.487825	139.122193	1095.433029	-446.958314	231.446278	1037.087411	-60.612094	294.120123	983.972269	-69.834142	358.215833	921.410753	-80.043767	327.851637	1022.594030	-89.716355	396.116309	815.095965	-99.730698	304.768531	741.018817	-63.688517	242.010809	683.895396	-66.879178	169.970806	631.819412	-76.983803	271.134458	651.064682	-108.197330	63.340042	559.455283	-94.679563	108.291460	545.465493	-171.975680	12.490143	561.381200	-151.579141	197.563629	359.778054	-137.276629	101.436459	410.364595	-71.494846	200.674325	963.853246	-405.718773	277.888813	927.541754	-457.301431	294.098338	952.865695	-428.575204	310.135297	851.012443	-411.581018	373.687366	742.990740	-388.082476	328.372500	642.753828	-431.300237	316.266768	556.920627	-428.284490	301.163280	472.882760	-420.630270	367.392433	551.814883	-394.883733	275.195332	345.286740	-410.442033	287.428557	298.293658	-306.703158	228.701966	311.102860	-372.012878	498.263508	260.343440	-369.535218	394.333011	251.776303	-440.647662	-223.765815	892.950177	-253.132184	-12.641091	84.530555	-456.054933	-21.504478	80.775280	-55.944041	
254	1.2700	623.412223	1352.461970	-148.865474	603.027730	1342.605431	-466.198610	562.371001	1432.442148	-309.098312	571.375973	1266.706783	-297.266852	623.579467	1087.495235	-16.826902	735.408748	854.183527	-55.679784	555.956605	1056.723746	-562.136496	723.860273	892.564586	-450.685776	34.270857	1236.823913	-265.221213	206.006544	1221.432720	-439.332792	189.285064	1238.426822	-110.392569	234.158961	1176.221101	-440.548809	207.949497	1185.806282	-132.554554	60.646388	1275.491827	-215.430504	64.887288	1269.879120	-322.076080	132.014260	1129.219014	-70.110323	141.713854	1094.034743	-447.264538	233.789510	1038.314222	-60.930027	296.910770	985.652019	-69.792303	361.595411	923.575598	-79.821921	330.412652	1024.521388	-89.709953	400.232422	817.490362	-99.229620	308.544330	743.878925	-63.349924	245.479959	687.034842	-66.601043	173.240073	635.383628	-76.770499	274.495657	654.012863	-107.882802	66.251130	563.592122	-94.432841	110.427782	548.907884	-171.718382	15.476228	565.752151	-152.339285	199.722749	363.485919	-137.245204	103.828589	414.429020	-71.432918	201.569751	964.348935	-410.477502	275.439979	925.770402	-456.985943	296.305864	951.178334	-428.794342	311.789787	849.212863	-411.832652	374.650467	740.960861	-387.957717	329.353497	640.479645	-431.395266	317.050231	554.641301	-428.398359	301.896229	470.676752	-420.802179	368.051976	549.686094	-394.884262	275.352155	343.278506	-410.424613	285.540151	292.850014	-305.887951	226.237078	312.100885	-373.825961	497.156058	254.412912	-369.376345	393.132104	248.001737	-440.676280	-223.760065	892.942279	-253.049189	-12.623160	84.551404	-456.039410	-21.488587	80.788205	-55.932698	
255	1.2750	624.419450	1352.724258	-149.263275	604.665851	1342.684913	-466.655373	563.772841	1432.881280	-309.788702	572.632469	1267.030833	-297.872209	624.383924	1087.509418	-17.172882	735.627577	854.182907	-55.814548	557.753058	1056.409744	-562.086284	724.332018	891.695259	-449.921099	35.537687	1236.246535	-266.137778	208.297669	1219.873049	-440.772779	190.527374	1239.071080	-111.432248	236.645172	1175.081390	-441.257631	209.496603	1186.300572	-133.402620	62.116846	1274.747328	-217.204485	66.810678	1268.617988	-323.808435	133.805412	1129.747926	-70.939788	144.424639	1092.492954	-447.655544	236.129211	1039.370115	-61.166905	299.793120	987.201166	-69.724871	365.027880	925.661678	-79.424741	332.988417	1026.330857	-89.641594	404.449272	819.921439	-98.649232	312.410429	746.715293	-62.898590	249.092782	690.170573	-66.293730	176.559921	638.905383	-76.616743	278.035886	656.969996	-107.454769	69.170817	567.648060	-94.309744	113.191601	552.534191	-171.560315	18.269252	569.691711	-152.362208	202.015074	367.226056	-137.245663	106.309750	418.468504	-71.372700	202.353768	964.785373	-415.285926	273.391882	922.552510	-454.692893	298.579799	949.267841	-428.911879	313.613053	847.239301	-412.034746	375.784523	738.397977	-387.899585	330.292864	638.018542	-431.501775	317.859534	552.305168	-428.587221	302.545369	468.390791	-420.928915	368.649265	547.489244	-394.876072	275.057081	341.570558	-410.926904	283.588721	287.478767	-305.078701	224.649995	312.275592	-374.939594	495.912960	248.571635	-369.155031	391.870931	244.210092	-440.714773	-223.735324	892.952884	-252.994710	-12.601635	84.571768	-456.022110	-21.481255	80.780151	-55.932534	
256	1.2800	625.286214	1353.073244	-149.684612	606.184886	1342.879454	-467.175453	565.156695	1433.392569	-310.466505	573.949664	1267.555966	-298.443003	625.198068	1087.452188	-17.658277	735.791499	854.232121	-55.967407	559.688275	1056.018943	-561.920016	724.897030	890.845452	-448.964979	37.417640	1234.889802	-267.778367	210.524172	1218.133476	-442.207652	191.711390	1239.602621	-112.520411	239.300836	1173.805106	-442.143362	211.001101	1186.724150	-134.257463	63.562047	1273.799798	-219.078531	68.800950	1267.060847	-325.607499	135.587408	1130.158070	-71.632496	147.164092	1090.725576	-448.031052	238.540946	1040.228818	-61.359722	302.728756	988.665489	-69.546237	368.575655	927.671543	-78.960986	335.648246	1028.052461	-89.449931	408.735036	822.260910	-98.039423	316.376318	749.499199	-62.512786	252.452937	693.276331	-66.167651	180.010171	642.318203	-76.475623	281.614471	659.847850	-107.116301	72.081376	571.755028	-94.061166	116.349392	556.259980	-171.250415	21.336099	573.945209	-152.149584	204.398323	370.839655	-137.138732	108.873688	422.450897	-71.266715	203.465243	964.561113	-419.340264	271.827882	918.315388	-451.108411	300.837472	947.152346	-429.125357	315.509777	845.077636	-412.219127	376.891149	735.849694	-387.971828	331.074781	635.479108	-431.887327	318.566330	549.876755	-428.679653	303.084036	466.014797	-421.063241	369.319954	545.043322	-394.873104	275.010990	339.432970	-410.895419	281.578304	282.193323	-304.280784	223.911855	311.591670	-375.377095	494.436179	242.787745	-368.979617	390.490429	240.447124	-440.748660	-223.689810	892.961499	-252.966676	-12.583008	84.587689	-456.009145	-21.438872	80.780117	-55.922268	
